<svg version="1.1" id="Layer_1" xmlns="http://www.w3.org/2000/svg" xmlns:xlink="http://www.w3.org/1999/xlink" x="0px" y="0px"
	 width="100%" viewBox="0 0 4000 4000" enable-background="new 0 0 4000 4000" xml:space="preserve">
<path fill="#000000" opacity="1.000000" stroke="none" 
	d="
M1966.000000,4002.000000 
	C1310.666626,4002.000000 656.333313,4002.000000 2.000000,4002.000000 
	C2.000000,2668.666748 2.000000,1335.333374 2.000000,2.000000 
	C1335.333374,2.000000 2668.666748,2.000000 4002.000000,2.000000 
	C4002.000000,1335.333374 4002.000000,2668.666748 4002.000000,4002.000000 
	C3323.666748,4002.000000 2645.333252,4002.000000 1966.000000,4002.000000 
M2284.966064,2569.246582 
	C2328.137695,2548.948486 2369.963135,2526.372803 2409.396973,2499.302490 
	C2450.363525,2471.179443 2485.956543,2437.192627 2519.445557,2400.916260 
	C2547.742188,2370.265381 2572.637695,2336.909912 2594.533936,2301.306641 
	C2615.025146,2267.988525 2632.333252,2233.075684 2646.824707,2196.853271 
	C2660.695557,2162.181641 2671.255859,2126.397461 2679.645020,2089.946777 
	C2691.503662,2038.421509 2696.328857,1986.108398 2697.661621,1933.449585 
	C2698.208252,1911.855225 2696.681396,1890.198853 2695.817871,1868.582031 
	C2695.312988,1855.950562 2695.039551,1843.232910 2693.315918,1830.739868 
	C2684.012939,1763.317993 2665.858154,1698.204346 2637.734619,1636.302734 
	C2597.438232,1547.608032 2541.350098,1470.100464 2469.450684,1403.965942 
	C2420.246826,1358.707397 2366.087402,1321.204834 2305.634766,1292.651123 
	C2273.019775,1277.246094 2239.543701,1264.271484 2204.988525,1253.921753 
	C2151.398193,1237.870728 2096.553711,1229.060669 2040.818848,1226.504272 
	C2017.945190,1225.455200 1994.915894,1227.542114 1971.968994,1228.486206 
	C1963.668335,1228.827759 1955.401978,1229.998535 1947.119873,1230.790039 
	C1928.567505,1232.562988 1910.019653,1234.386230 1891.461304,1236.093384 
	C1874.558594,1237.648193 1857.618164,1238.830078 1840.740479,1240.612793 
	C1805.516113,1244.333374 1771.173950,1251.888794 1737.416016,1262.879395 
	C1690.076660,1278.291626 1644.279053,1296.992065 1600.390625,1320.580688 
	C1545.039673,1350.329956 1495.978516,1388.440308 1451.341797,1432.260132 
	C1432.368408,1450.886353 1414.807861,1471.043213 1397.558960,1491.315918 
	C1358.676392,1537.015137 1326.990234,1587.446167 1302.691040,1642.285645 
	C1282.931763,1686.879395 1268.384033,1733.237183 1258.644531,1781.112793 
	C1249.786133,1824.656860 1245.401001,1868.659058 1244.289673,1912.991089 
	C1243.915161,1927.928467 1245.435425,1942.905518 1245.807495,1957.871460 
	C1246.670898,1992.604492 1251.471924,2026.841797 1257.898926,2060.931885 
	C1266.701050,2107.621338 1280.604126,2152.803955 1298.305664,2196.774658 
	C1313.887451,2235.479736 1333.378418,2272.279785 1355.820923,2307.486084 
	C1377.373291,2341.295410 1401.578125,2373.109863 1429.418701,2401.939941 
	C1449.076538,2422.296387 1469.834351,2441.594971 1490.241821,2461.219482 
	C1494.548828,2465.361572 1499.267700,2469.148438 1504.138428,2472.619385 
	C1545.379517,2502.007812 1586.195312,2532.041016 1631.606445,2555.020996 
	C1639.520264,2559.025635 1646.664185,2564.551758 1652.259033,2569.611572 
	C1631.663940,2570.400635 1610.860596,2569.609131 1590.514404,2572.288330 
	C1538.875122,2579.087646 1487.381348,2587.073975 1435.951050,2595.342529 
	C1412.989502,2599.033936 1390.282837,2604.495117 1368.680420,2613.472656 
	C1361.344360,2616.521240 1353.981445,2619.964111 1347.482544,2624.458252 
	C1338.145630,2630.915527 1337.762817,2641.223877 1345.791260,2649.142090 
	C1348.119873,2651.438721 1350.791870,2653.703125 1353.739136,2654.996338 
	C1362.547607,2658.862793 1371.370850,2662.892822 1380.542603,2665.702148 
	C1435.050659,2682.397461 1491.012451,2691.710693 1547.589478,2697.622803 
	C1587.510742,2701.794189 1627.430420,2706.051514 1667.416382,2709.512695 
	C1698.163940,2712.174316 1728.990967,2714.178467 1759.824341,2715.513672 
	C1790.729370,2716.851562 1821.685669,2717.013672 1852.620361,2717.651611 
	C1857.951050,2717.761475 1863.285889,2717.657959 1868.618652,2717.680420 
	C1919.830688,2717.896484 1971.043335,2718.377686 2022.254395,2718.233643 
	C2049.522705,2718.156982 2076.797119,2717.249023 2104.052246,2716.265381 
	C2132.264404,2715.247559 2160.461914,2713.783936 2188.656250,2712.326660 
	C2211.532959,2711.144287 2234.402100,2709.793701 2257.261963,2708.317871 
	C2286.406494,2706.436035 2315.574463,2704.772705 2344.666016,2702.249268 
	C2380.356689,2699.153320 2416.057129,2695.906250 2451.608887,2691.547119 
	C2490.216064,2686.813721 2528.311035,2678.984131 2565.630371,2667.873291 
	C2583.554199,2662.537109 2600.665527,2655.180664 2615.652832,2643.639404 
	C2621.129150,2639.422607 2622.172607,2634.882080 2618.388184,2629.156006 
	C2616.432861,2626.196777 2613.671631,2623.573730 2610.791504,2621.456055 
	C2598.249756,2612.235840 2583.849609,2607.074707 2568.961914,2603.195557 
	C2516.455078,2589.515625 2462.960205,2581.664795 2409.052490,2576.285889 
	C2391.555664,2574.540039 2374.028809,2573.044678 2356.572754,2570.957275 
	C2334.467773,2568.313721 2312.387451,2564.008545 2290.737793,2573.355225 
	C2287.314941,2574.833008 2284.960449,2573.561768 2284.966064,2569.246582 
z"/>
<path fill="#3B090B" opacity="1.000000" stroke="none" 
	d="
M1654.163696,2569.375244 
	C1646.664185,2564.551758 1639.520264,2559.025635 1631.606445,2555.020996 
	C1586.195312,2532.041016 1545.379517,2502.007812 1504.138428,2472.619385 
	C1499.267700,2469.148438 1494.548828,2465.361572 1490.241821,2461.219482 
	C1469.834351,2441.594971 1449.076538,2422.296387 1429.418701,2401.939941 
	C1401.578125,2373.109863 1377.373291,2341.295410 1355.820923,2307.486084 
	C1333.378418,2272.279785 1313.887451,2235.479736 1298.305664,2196.774658 
	C1280.604126,2152.803955 1266.701050,2107.621338 1257.898926,2060.931885 
	C1251.471924,2026.841797 1246.670898,1992.604492 1245.807495,1957.871460 
	C1245.435425,1942.905518 1243.915161,1927.928467 1244.289673,1912.991089 
	C1245.401001,1868.659058 1249.786133,1824.656860 1258.644531,1781.112793 
	C1268.384033,1733.237183 1282.931763,1686.879395 1302.691040,1642.285645 
	C1326.990234,1587.446167 1358.676392,1537.015137 1397.558960,1491.315918 
	C1414.807861,1471.043213 1432.368408,1450.886353 1451.341797,1432.260132 
	C1495.978516,1388.440308 1545.039673,1350.329956 1600.390625,1320.580688 
	C1644.279053,1296.992065 1690.076660,1278.291626 1737.416016,1262.879395 
	C1771.173950,1251.888794 1805.516113,1244.333374 1840.740479,1240.612793 
	C1857.618164,1238.830078 1874.558594,1237.648193 1891.461304,1236.093384 
	C1910.019653,1234.386230 1928.567505,1232.562988 1947.119873,1230.790039 
	C1955.401978,1229.998535 1963.668335,1228.827759 1971.968994,1228.486206 
	C1994.915894,1227.542114 2017.945190,1225.455200 2040.818848,1226.504272 
	C2096.553711,1229.060669 2151.398193,1237.870728 2204.988525,1253.921753 
	C2239.543701,1264.271484 2273.019775,1277.246094 2305.634766,1292.651123 
	C2366.087402,1321.204834 2420.246826,1358.707397 2469.450684,1403.965942 
	C2541.350098,1470.100464 2597.438232,1547.608032 2637.734619,1636.302734 
	C2665.858154,1698.204346 2684.012939,1763.317993 2693.315918,1830.739868 
	C2695.039551,1843.232910 2695.312988,1855.950562 2695.817871,1868.582031 
	C2696.681396,1890.198853 2698.208252,1911.855225 2697.661621,1933.449585 
	C2696.328857,1986.108398 2691.503662,2038.421509 2679.645020,2089.946777 
	C2671.255859,2126.397461 2660.695557,2162.181641 2646.824707,2196.853271 
	C2632.333252,2233.075684 2615.025146,2267.988525 2594.533936,2301.306641 
	C2572.637695,2336.909912 2547.742188,2370.265381 2519.445557,2400.916260 
	C2485.956543,2437.192627 2450.363525,2471.179443 2409.396973,2499.302490 
	C2369.963135,2526.372803 2328.137695,2548.948486 2283.622070,2569.607422 
	C2275.694336,2572.249268 2269.006836,2574.270020 2262.542725,2576.850342 
	C2189.566406,2605.982666 2113.661133,2619.590820 2035.238037,2619.830322 
	C1998.578125,2619.942139 1961.917603,2619.833008 1925.257446,2619.880127 
	C1879.578979,2619.938965 1834.148804,2618.034180 1789.149048,2608.725586 
	C1758.669189,2602.420410 1728.904785,2593.814209 1699.142700,2585.002197 
	C1691.170166,2578.232422 1678.984497,2580.254150 1671.669922,2571.718262 
	C1670.291382,2570.109375 1666.715942,2570.182129 1664.107788,2569.878662 
	C1660.818115,2569.496338 1657.480591,2569.524170 1654.163696,2569.375244 
M1491.946899,1498.160156 
	C1492.342285,1497.769287 1492.585571,1497.299438 1493.605591,1495.777466 
	C1500.942139,1486.799683 1508.325928,1477.859863 1515.587158,1468.821655 
	C1517.828735,1466.031738 1519.735962,1462.973267 1523.079346,1459.565552 
	C1534.708984,1451.302246 1541.379028,1438.822510 1551.153931,1427.354248 
	C1555.707153,1423.488770 1560.765259,1420.076660 1564.719360,1415.673218 
	C1576.817505,1402.200562 1590.712524,1390.875854 1605.270020,1380.273071 
	C1620.339233,1369.297241 1635.450562,1358.379272 1650.503784,1347.381470 
	C1652.772583,1345.723877 1654.824707,1343.769653 1656.977051,1341.952637 
	C1656.574585,1341.255249 1656.172119,1340.557861 1655.769775,1339.860352 
	C1647.414551,1343.614624 1638.804321,1346.896606 1630.766602,1351.238770 
	C1619.940063,1357.087646 1609.672241,1363.960938 1598.956543,1370.027222 
	C1573.683350,1384.334839 1549.985474,1400.949219 1527.155151,1418.815430 
	C1520.385864,1424.113037 1514.238770,1430.205688 1506.542847,1436.398438 
	C1498.696045,1441.862305 1490.652710,1447.122070 1484.820679,1456.434326 
	C1482.650024,1457.938721 1480.068970,1459.081421 1478.374512,1461.005249 
	C1465.832886,1475.243896 1453.467651,1489.638062 1440.021362,1504.692261 
	C1433.542358,1511.855713 1426.660278,1518.697754 1420.649414,1526.234497 
	C1379.833374,1577.413086 1347.932129,1633.590942 1325.320190,1695.133911 
	C1310.817505,1734.605957 1299.206909,1774.702393 1292.610840,1816.309326 
	C1285.655884,1860.179810 1282.170288,1904.297485 1283.794800,1948.601685 
	C1284.902100,1978.792480 1287.894409,2008.985840 1291.623413,2038.981689 
	C1293.829956,2056.731201 1299.074585,2074.106689 1303.016235,2091.636230 
	C1310.430176,2124.607666 1323.098267,2155.870361 1335.149170,2187.250977 
	C1342.525269,2206.458008 1351.681396,2225.107178 1361.470459,2243.233154 
	C1377.627075,2273.149658 1397.374878,2300.798584 1418.071045,2327.755371 
	C1423.537720,2334.875488 1427.970215,2342.903564 1434.055298,2349.414062 
	C1455.436646,2372.290039 1477.269775,2394.745850 1499.084473,2417.212646 
	C1503.233398,2421.485840 1508.068115,2425.095215 1512.606812,2428.987061 
	C1519.638916,2435.017090 1526.298706,2441.573975 1533.814453,2446.927490 
	C1548.459351,2457.359863 1563.583984,2467.118896 1578.518188,2477.144287 
	C1584.603638,2481.229492 1590.639160,2485.394287 1596.818359,2489.333008 
	C1640.978882,2517.482422 1689.602539,2535.957275 1738.237549,2554.384033 
	C1741.954712,2555.792480 1745.903687,2556.651367 1749.806519,2557.473145 
	C1751.171265,2557.760742 1752.721802,2557.166504 1754.187500,2556.974609 
	C1754.390747,2556.345215 1754.593872,2555.716064 1754.797119,2555.086670 
	C1752.109253,2553.515625 1749.478882,2551.834717 1746.723877,2550.391846 
	C1732.261963,2542.818115 1717.677612,2535.472900 1703.302490,2527.738770 
	C1655.711060,2502.133789 1613.636963,2468.934814 1574.500366,2432.053955 
	C1556.831421,2415.403564 1540.586060,2397.166504 1524.464844,2378.967041 
	C1498.400513,2349.543213 1473.976562,2318.867432 1454.414429,2284.519287 
	C1432.003540,2245.168701 1407.564697,2206.987305 1392.702881,2163.678223 
	C1383.828735,2137.817871 1373.548340,2112.356934 1368.554565,2085.443848 
	C1362.908813,2055.016357 1358.038452,2024.381836 1354.513184,1993.644409 
	C1351.749268,1969.545044 1350.549072,1945.153564 1350.507935,1920.888672 
	C1350.471802,1899.626465 1352.854614,1878.347778 1354.469971,1857.099243 
	C1355.731689,1840.500610 1356.683350,1823.821655 1359.140381,1807.382935 
	C1363.675293,1777.039551 1370.735352,1747.223999 1380.454468,1718.061768 
	C1385.817139,1701.971191 1389.778442,1685.353760 1396.034302,1669.635620 
	C1404.150269,1649.243652 1414.141846,1629.606812 1422.925171,1609.469971 
	C1434.036987,1583.994019 1447.752808,1560.070557 1464.169434,1537.664185 
	C1471.260498,1527.986084 1478.318237,1518.281250 1485.235962,1508.479004 
	C1487.319336,1505.526611 1488.880371,1502.205444 1491.071777,1498.959839 
	C1491.071777,1498.959839 1491.288574,1498.621216 1491.946899,1498.160156 
M2632.476807,2116.717529 
	C2636.709961,2096.877197 2641.607178,2077.149658 2645.008301,2057.167480 
	C2649.247803,2032.259033 2653.197998,2007.229614 2655.559082,1982.091553 
	C2658.644775,1949.238281 2658.389648,1916.247681 2656.504395,1883.242920 
	C2654.715576,1851.926636 2650.673828,1820.968384 2645.028564,1790.153687 
	C2635.838623,1739.993164 2618.012207,1692.785767 2596.927246,1646.599976 
	C2580.581055,1610.794434 2563.901611,1575.180908 2539.831543,1543.745239 
	C2505.707520,1499.179565 2467.693604,1457.942993 2426.035156,1420.513306 
	C2369.168701,1369.419312 2303.332520,1332.519531 2231.778809,1305.915894 
	C2188.204834,1289.714966 2142.957031,1280.230835 2096.960693,1274.179321 
	C2070.197754,1270.658081 2043.335205,1267.727661 2016.302002,1269.010742 
	C1995.361328,1270.004395 1974.469727,1272.038330 1953.557617,1273.627563 
	C1904.769653,1277.334839 1857.577148,1288.553223 1811.539062,1304.660156 
	C1800.684570,1308.457642 1790.652588,1314.605469 1778.701050,1319.804688 
	C1772.843750,1322.118530 1766.706909,1323.903809 1761.173462,1326.830078 
	C1718.851807,1349.211060 1676.936890,1372.429810 1639.805542,1402.917847 
	C1620.873413,1418.462769 1603.686035,1436.132690 1584.392944,1453.237549 
	C1583.385132,1454.123047 1582.377197,1455.008423 1580.351562,1456.384155 
	C1578.872681,1458.062744 1577.393799,1459.741455 1574.650391,1462.018433 
	C1570.000488,1466.787964 1565.225098,1471.442139 1560.720215,1476.344849 
	C1517.307983,1523.592041 1483.874023,1577.614136 1454.109619,1634.072388 
	C1441.034058,1658.874146 1430.339722,1684.724487 1422.093506,1711.552856 
	C1404.889648,1767.524658 1394.756958,1824.692017 1391.444702,1883.212524 
	C1388.435059,1936.384155 1391.416504,1989.104614 1400.892456,2041.412598 
	C1417.294189,2131.950439 1452.678101,2214.716309 1504.746582,2290.397949 
	C1544.062744,2347.544434 1588.765747,2399.722412 1644.952515,2441.278320 
	C1685.524536,2471.285889 1728.360229,2497.543701 1773.670410,2519.678955 
	C1789.443237,2527.384277 1805.861450,2533.774414 1822.033447,2540.650879 
	C1824.457520,2541.681641 1827.142944,2542.107178 1829.717896,2542.772461 
	C1837.444946,2544.769287 1845.160156,2546.815918 1852.910767,2548.718018 
	C1880.362305,2555.456055 1906.789307,2565.847168 1935.001831,2570.057617 
	C1959.079102,2573.650635 1982.975708,2577.807373 2007.451172,2576.978760 
	C2015.763306,2576.697510 2024.111816,2577.026367 2032.427734,2577.415771 
	C2052.062744,2578.334717 2071.606201,2579.393555 2091.198486,2575.776611 
	C2118.027588,2570.823486 2145.111084,2567.237061 2171.918213,2562.178711 
	C2204.804199,2555.973633 2235.330811,2542.035400 2266.954590,2531.687012 
	C2271.264893,2530.276611 2275.012939,2527.148682 2280.412109,2524.461426 
	C2292.830811,2518.838135 2305.980957,2514.411865 2317.525879,2507.358643 
	C2347.343262,2489.141357 2377.031494,2470.591064 2405.631592,2450.547607 
	C2423.549316,2437.990234 2440.439453,2423.536377 2456.010498,2408.134033 
	C2534.469238,2330.526123 2593.324951,2240.560791 2626.365723,2132.961914 
	C2628.166992,2128.010742 2629.968018,2123.059570 2632.476807,2116.717529 
z"/>
<path fill="#DA947D" opacity="1.000000" stroke="none" 
	d="
M1653.211426,2569.493408 
	C1657.480591,2569.524170 1660.818115,2569.496338 1664.107788,2569.878662 
	C1666.715942,2570.182129 1670.291382,2570.109375 1671.669922,2571.718262 
	C1678.984497,2580.254150 1691.170166,2578.232422 1699.142700,2585.002197 
	C1728.904785,2593.814209 1758.669189,2602.420410 1789.149048,2608.725586 
	C1834.148804,2618.034180 1879.578979,2619.938965 1925.257446,2619.880127 
	C1961.917603,2619.833008 1998.578125,2619.942139 2035.238037,2619.830322 
	C2113.661133,2619.590820 2189.566406,2605.982666 2262.542725,2576.850342 
	C2269.006836,2574.270020 2275.694336,2572.249268 2283.038086,2570.006348 
	C2284.960449,2573.561768 2287.314941,2574.833008 2290.737793,2573.355225 
	C2312.387451,2564.008545 2334.467773,2568.313721 2356.572754,2570.957275 
	C2374.028809,2573.044678 2391.555664,2574.540039 2409.052490,2576.285889 
	C2462.960205,2581.664795 2516.455078,2589.515625 2568.961914,2603.195557 
	C2583.849609,2607.074707 2598.249756,2612.235840 2610.791504,2621.456055 
	C2613.671631,2623.573730 2616.432861,2626.196777 2618.388184,2629.156006 
	C2622.172607,2634.882080 2621.129150,2639.422607 2615.652832,2643.639404 
	C2600.665527,2655.180664 2583.554199,2662.537109 2565.630371,2667.873291 
	C2528.311035,2678.984131 2490.216064,2686.813721 2451.608887,2691.547119 
	C2416.057129,2695.906250 2380.356689,2699.153320 2344.666016,2702.249268 
	C2315.574463,2704.772705 2286.406494,2706.436035 2257.261963,2708.317871 
	C2234.402100,2709.793701 2211.532959,2711.144287 2188.656250,2712.326660 
	C2160.461914,2713.783936 2132.264404,2715.247559 2104.052246,2716.265381 
	C2076.797119,2717.249023 2049.522705,2718.156982 2022.254395,2718.233643 
	C1971.043335,2718.377686 1919.830688,2717.896484 1868.618652,2717.680420 
	C1863.285889,2717.657959 1857.951050,2717.761475 1852.620361,2717.651611 
	C1821.685669,2717.013672 1790.729370,2716.851562 1759.824341,2715.513672 
	C1728.990967,2714.178467 1698.163940,2712.174316 1667.416382,2709.512695 
	C1627.430420,2706.051514 1587.510742,2701.794189 1547.589478,2697.622803 
	C1491.012451,2691.710693 1435.050659,2682.397461 1380.542603,2665.702148 
	C1371.370850,2662.892822 1362.547607,2658.862793 1353.739136,2654.996338 
	C1350.791870,2653.703125 1348.119873,2651.438721 1345.791260,2649.142090 
	C1337.762817,2641.223877 1338.145630,2630.915527 1347.482544,2624.458252 
	C1353.981445,2619.964111 1361.344360,2616.521240 1368.680420,2613.472656 
	C1390.282837,2604.495117 1412.989502,2599.033936 1435.951050,2595.342529 
	C1487.381348,2587.073975 1538.875122,2579.087646 1590.514404,2572.288330 
	C1610.860596,2569.609131 1631.663940,2570.400635 1653.211426,2569.493408 
z"/>
<path fill="#F16840" opacity="1.000000" stroke="none" 
	d="
M1585.710205,1452.842285 
	C1603.686035,1436.132690 1620.873413,1418.462769 1639.805542,1402.917847 
	C1676.936890,1372.429810 1718.851807,1349.211060 1761.173462,1326.830078 
	C1766.706909,1323.903809 1772.843750,1322.118530 1779.974487,1320.232666 
	C1785.135620,1325.494019 1789.358521,1324.185791 1793.496216,1321.167725 
	C1805.012695,1312.767700 1818.401245,1310.792480 1832.053711,1310.596924 
	C1831.571045,1315.393433 1831.579468,1319.443726 1830.572632,1323.223755 
	C1823.017822,1351.590332 1821.488403,1380.520142 1821.659668,1410.252197 
	C1818.331665,1412.371704 1815.513672,1414.099854 1812.513306,1415.410645 
	C1805.493286,1418.477417 1798.198364,1420.964722 1791.343628,1424.352051 
	C1740.136963,1449.656372 1694.418335,1482.946167 1653.182251,1522.168091 
	C1614.579590,1558.885132 1581.890747,1600.568237 1556.564819,1647.569458 
	C1539.653564,1678.953979 1524.073853,1711.010132 1513.760254,1745.389648 
	C1496.296997,1803.602295 1488.629150,1863.211792 1488.269897,1923.778931 
	C1488.157837,1942.689941 1490.257812,1961.635864 1491.783081,1980.530396 
	C1494.966309,2019.963867 1504.145142,2058.190674 1517.193237,2095.381592 
	C1540.926270,2163.027344 1575.504761,2224.481689 1623.057251,2278.528564 
	C1644.497070,2302.896240 1668.162720,2324.790527 1693.181396,2345.233154 
	C1731.525513,2376.563721 1773.324219,2402.514648 1817.934326,2424.108887 
	C1877.169067,2452.781982 1939.496582,2469.662109 2005.100830,2473.665771 
	C2037.048950,2475.615723 2069.030273,2473.810303 2100.770752,2469.231934 
	C2141.800537,2463.313477 2181.789551,2453.345215 2220.677490,2438.847900 
	C2251.359131,2427.409180 2281.029785,2413.821045 2309.432129,2397.609863 
	C2355.224854,2371.472900 2395.617676,2338.686768 2430.399902,2298.886230 
	C2451.528564,2274.708740 2470.366943,2248.940918 2487.114746,2221.646729 
	C2507.367920,2188.639893 2524.448730,2154.010010 2539.023193,2118.022949 
	C2543.940430,2119.303223 2548.080322,2120.571289 2552.305420,2121.406982 
	C2572.467041,2125.394775 2592.638184,2129.338867 2612.839844,2133.116699 
	C2617.054932,2133.905029 2621.414307,2133.924316 2625.707031,2134.297852 
	C2593.324951,2240.560791 2534.469238,2330.526123 2456.010498,2408.134033 
	C2440.439453,2423.536377 2423.549316,2437.990234 2405.631592,2450.547607 
	C2377.031494,2470.591064 2347.343262,2489.141357 2317.525879,2507.358643 
	C2305.980957,2514.411865 2292.830811,2518.838135 2278.721680,2524.491211 
	C2264.741699,2524.799072 2252.326660,2524.058105 2240.187744,2525.555420 
	C2209.759521,2529.308594 2179.290527,2531.971191 2148.635742,2531.819580 
	C2135.674561,2531.755615 2122.697021,2530.961914 2109.764404,2529.997559 
	C2090.532471,2528.563232 2071.192627,2527.631592 2052.148682,2524.803955 
	C2006.850830,2518.077393 1963.167725,2504.878418 1920.040161,2489.744385 
	C1856.519287,2467.454346 1796.652466,2437.988525 1741.221313,2399.604980 
	C1711.558838,2379.064941 1683.891602,2356.087402 1658.337891,2330.760010 
	C1642.535400,2315.097656 1628.099731,2297.964111 1613.926147,2280.769287 
	C1579.649902,2239.186035 1551.825928,2193.471924 1528.237183,2145.058350 
	C1510.083740,2107.800537 1496.648315,2068.797852 1483.482910,2029.618774 
	C1466.027222,1977.672363 1458.600586,1924.013672 1456.405273,1869.643921 
	C1455.266235,1841.432739 1456.553345,1813.055176 1458.104492,1784.827515 
	C1459.178955,1765.274170 1461.735718,1745.702271 1465.094482,1726.393188 
	C1475.017334,1669.348022 1492.384277,1614.559937 1516.073975,1561.684448 
	C1530.837891,1528.731445 1545.975098,1496.206909 1572.179688,1470.308838 
	C1574.290771,1468.222168 1574.709473,1464.423218 1575.914795,1461.419922 
	C1577.393799,1459.741455 1578.872681,1458.062744 1581.526611,1455.955322 
	C1583.704468,1454.631714 1584.707397,1453.736938 1585.710205,1452.842285 
z"/>
<path fill="#DC4529" opacity="1.000000" stroke="none" 
	d="
M1575.282593,1461.719238 
	C1574.709473,1464.423218 1574.290771,1468.222168 1572.179688,1470.308838 
	C1545.975098,1496.206909 1530.837891,1528.731445 1516.073975,1561.684448 
	C1492.384277,1614.559937 1475.017334,1669.348022 1465.094482,1726.393188 
	C1461.735718,1745.702271 1459.178955,1765.274170 1458.104492,1784.827515 
	C1456.553345,1813.055176 1455.266235,1841.432739 1456.405273,1869.643921 
	C1458.600586,1924.013672 1466.027222,1977.672363 1483.482910,2029.618774 
	C1496.648315,2068.797852 1510.083740,2107.800537 1528.237183,2145.058350 
	C1551.825928,2193.471924 1579.649902,2239.186035 1613.926147,2280.769287 
	C1628.099731,2297.964111 1642.535400,2315.097656 1658.337891,2330.760010 
	C1683.891602,2356.087402 1711.558838,2379.064941 1741.221313,2399.604980 
	C1796.652466,2437.988525 1856.519287,2467.454346 1920.040161,2489.744385 
	C1963.167725,2504.878418 2006.850830,2518.077393 2052.148682,2524.803955 
	C2071.192627,2527.631592 2090.532471,2528.563232 2109.764404,2529.997559 
	C2122.697021,2530.961914 2135.674561,2531.755615 2148.635742,2531.819580 
	C2179.290527,2531.971191 2209.759521,2529.308594 2240.187744,2525.555420 
	C2252.326660,2524.058105 2264.741699,2524.799072 2278.026367,2524.668457 
	C2275.012939,2527.148682 2271.264893,2530.276611 2266.954590,2531.687012 
	C2235.330811,2542.035400 2204.804199,2555.973633 2171.918213,2562.178711 
	C2145.111084,2567.237061 2118.027588,2570.823486 2091.198486,2575.776611 
	C2071.606201,2579.393555 2052.062744,2578.334717 2032.427734,2577.415771 
	C2024.111816,2577.026367 2015.763306,2576.697510 2007.451172,2576.978760 
	C1982.975708,2577.807373 1959.079102,2573.650635 1935.001831,2570.057617 
	C1906.789307,2565.847168 1880.362305,2555.456055 1852.910767,2548.718018 
	C1845.160156,2546.815918 1837.444946,2544.769287 1829.717896,2542.772461 
	C1827.142944,2542.107178 1824.457520,2541.681641 1822.033447,2540.650879 
	C1805.861450,2533.774414 1789.443237,2527.384277 1773.670410,2519.678955 
	C1728.360229,2497.543701 1685.524536,2471.285889 1644.952515,2441.278320 
	C1588.765747,2399.722412 1544.062744,2347.544434 1504.746582,2290.397949 
	C1452.678101,2214.716309 1417.294189,2131.950439 1400.892456,2041.412598 
	C1391.416504,1989.104614 1388.435059,1936.384155 1391.444702,1883.212524 
	C1394.756958,1824.692017 1404.889648,1767.524658 1422.093506,1711.552856 
	C1430.339722,1684.724487 1441.034058,1658.874146 1454.109619,1634.072388 
	C1483.874023,1577.614136 1517.307983,1523.592041 1560.720215,1476.344849 
	C1565.225098,1471.442139 1570.000488,1466.787964 1575.282593,1461.719238 
z"/>
<path fill="#FA8F5B" opacity="1.000000" stroke="none" 
	d="
M2626.036377,2133.629883 
	C2621.414307,2133.924316 2617.054932,2133.905029 2612.839844,2133.116699 
	C2592.638184,2129.338867 2572.467041,2125.394775 2552.305420,2121.406982 
	C2548.080322,2120.571289 2543.940430,2119.303223 2539.103027,2117.279053 
	C2539.737305,2111.496338 2540.788818,2106.588867 2542.359619,2101.854248 
	C2557.887939,2055.054688 2565.929688,2006.773193 2569.325195,1957.795044 
	C2571.840332,1921.515137 2569.736572,1885.166992 2565.406250,1849.056030 
	C2555.571289,1767.038208 2529.173584,1690.820312 2484.450684,1621.165283 
	C2459.132324,1581.732300 2430.608887,1544.650513 2395.559570,1513.543457 
	C2342.321533,1466.293457 2282.677002,1428.769897 2216.219482,1402.537720 
	C2164.668457,1382.189331 2111.285645,1369.691162 2055.986328,1366.383911 
	C1993.708130,1362.659180 1933.012085,1371.973389 1873.833252,1391.345093 
	C1856.447632,1397.035889 1839.328247,1403.539917 1822.086914,1409.671143 
	C1821.488403,1380.520142 1823.017822,1351.590332 1830.572632,1323.223755 
	C1831.579468,1319.443726 1831.571045,1315.393433 1832.434082,1310.062256 
	C1836.666382,1304.726562 1838.711426,1298.187012 1845.443726,1298.316406 
	C1856.368774,1298.526367 1866.399170,1295.155273 1876.590210,1291.995605 
	C1880.662354,1290.732788 1885.085449,1290.534790 1889.370361,1290.038086 
	C1902.906860,1288.469238 1916.444336,1286.899780 1929.998901,1285.499878 
	C1942.222046,1284.237427 1954.457275,1282.425659 1966.706665,1282.255615 
	C1981.946533,1282.043945 1997.219604,1283.993896 2012.454834,1283.717285 
	C2040.442139,1283.209106 2067.321045,1289.377808 2094.263916,1295.565674 
	C2133.952148,1304.680542 2172.443359,1317.797485 2210.696045,1331.457153 
	C2252.530518,1346.395752 2292.215332,1366.037231 2329.498047,1390.338379 
	C2356.601807,1408.004517 2381.902100,1427.976196 2406.489258,1449.006104 
	C2431.593994,1470.479248 2455.038330,1493.570312 2476.858398,1518.260254 
	C2501.352539,1545.976562 2523.806885,1575.328125 2543.717041,1606.569214 
	C2569.765869,1647.442383 2592.209473,1690.107056 2607.047852,1736.394287 
	C2615.482910,1762.706055 2623.195312,1789.258423 2630.782471,1815.831299 
	C2643.658203,1860.925537 2648.962158,1907.134644 2649.813965,1953.892334 
	C2649.976562,1962.833130 2648.788330,1971.811768 2648.007080,1980.753906 
	C2646.387207,1999.296021 2645.476807,2017.955566 2642.675537,2036.322998 
	C2639.869873,2054.718506 2635.136963,2072.821289 2631.208496,2091.043701 
	C2629.251709,2100.120117 2630.176514,2109.116211 2631.769287,2118.108398 
	C2629.968018,2123.059570 2628.166992,2128.010742 2626.036377,2133.629883 
z"/>
<path fill="#A3210C" opacity="1.000000" stroke="none" 
	d="
M1490.680786,1499.053345 
	C1488.880371,1502.205444 1487.319336,1505.526611 1485.235962,1508.479004 
	C1478.318237,1518.281250 1471.260498,1527.986084 1464.169434,1537.664185 
	C1447.752808,1560.070557 1434.036987,1583.994019 1422.925171,1609.469971 
	C1414.141846,1629.606812 1404.150269,1649.243652 1396.034302,1669.635620 
	C1389.778442,1685.353760 1385.817139,1701.971191 1380.454468,1718.061768 
	C1370.735352,1747.223999 1363.675293,1777.039551 1359.140381,1807.382935 
	C1356.683350,1823.821655 1355.731689,1840.500610 1354.469971,1857.099243 
	C1352.854614,1878.347778 1350.471802,1899.626465 1350.507935,1920.888672 
	C1350.549072,1945.153564 1351.749268,1969.545044 1354.513184,1993.644409 
	C1358.038452,2024.381836 1362.908813,2055.016357 1368.554565,2085.443848 
	C1373.548340,2112.356934 1383.828735,2137.817871 1392.702881,2163.678223 
	C1407.564697,2206.987305 1432.003540,2245.168701 1454.414429,2284.519287 
	C1473.976562,2318.867432 1498.400513,2349.543213 1524.464844,2378.967041 
	C1540.586060,2397.166504 1556.831421,2415.403564 1574.500366,2432.053955 
	C1613.636963,2468.934814 1655.711060,2502.133789 1703.302490,2527.738770 
	C1717.677612,2535.472900 1732.261963,2542.818115 1746.723877,2550.391846 
	C1749.478882,2551.834717 1752.109253,2553.515625 1754.797119,2555.086670 
	C1754.593872,2555.716064 1754.390747,2556.345215 1754.187500,2556.974609 
	C1752.721802,2557.166504 1751.171265,2557.760742 1749.806519,2557.473145 
	C1745.903687,2556.651367 1741.954712,2555.792480 1738.237549,2554.384033 
	C1689.602539,2535.957275 1640.978882,2517.482422 1596.818359,2489.333008 
	C1590.639160,2485.394287 1584.603638,2481.229492 1578.518188,2477.144287 
	C1563.583984,2467.118896 1548.459351,2457.359863 1533.814453,2446.927490 
	C1526.298706,2441.573975 1519.638916,2435.017090 1512.606812,2428.987061 
	C1508.068115,2425.095215 1503.233398,2421.485840 1499.084473,2417.212646 
	C1477.269775,2394.745850 1455.436646,2372.290039 1434.055298,2349.414062 
	C1427.970215,2342.903564 1423.537720,2334.875488 1418.071045,2327.755371 
	C1397.374878,2300.798584 1377.627075,2273.149658 1361.470459,2243.233154 
	C1351.681396,2225.107178 1342.525269,2206.458008 1335.149170,2187.250977 
	C1323.098267,2155.870361 1310.430176,2124.607666 1303.016235,2091.636230 
	C1299.074585,2074.106689 1293.829956,2056.731201 1291.623413,2038.981689 
	C1287.894409,2008.985840 1284.902100,1978.792480 1283.794800,1948.601685 
	C1282.170288,1904.297485 1285.655884,1860.179810 1292.610840,1816.309326 
	C1299.206909,1774.702393 1310.817505,1734.605957 1325.320190,1695.133911 
	C1347.932129,1633.590942 1379.833374,1577.413086 1420.649414,1526.234497 
	C1426.660278,1518.697754 1433.542358,1511.855713 1441.472656,1504.432617 
	C1454.304688,1502.832886 1465.680054,1501.447021 1477.068359,1500.175659 
	C1481.591187,1499.670898 1486.142456,1499.419922 1490.680786,1499.053345 
z"/>
<path fill="#F8A772" opacity="1.000000" stroke="none" 
	d="
M2632.123047,2117.413086 
	C2630.176514,2109.116211 2629.251709,2100.120117 2631.208496,2091.043701 
	C2635.136963,2072.821289 2639.869873,2054.718506 2642.675537,2036.322998 
	C2645.476807,2017.955566 2646.387207,1999.296021 2648.007080,1980.753906 
	C2648.788330,1971.811768 2649.976562,1962.833130 2649.813965,1953.892334 
	C2648.962158,1907.134644 2643.658203,1860.925537 2630.782471,1815.831299 
	C2623.195312,1789.258423 2615.482910,1762.706055 2607.047852,1736.394287 
	C2592.209473,1690.107056 2569.765869,1647.442383 2543.717041,1606.569214 
	C2523.806885,1575.328125 2501.352539,1545.976562 2476.858398,1518.260254 
	C2455.038330,1493.570312 2431.593994,1470.479248 2406.489258,1449.006104 
	C2381.902100,1427.976196 2356.601807,1408.004517 2329.498047,1390.338379 
	C2292.215332,1366.037231 2252.530518,1346.395752 2210.696045,1331.457153 
	C2172.443359,1317.797485 2133.952148,1304.680542 2094.263916,1295.565674 
	C2067.321045,1289.377808 2040.442139,1283.209106 2012.454834,1283.717285 
	C1997.219604,1283.993896 1981.946533,1282.043945 1966.706665,1282.255615 
	C1954.457275,1282.425659 1942.222046,1284.237427 1929.998901,1285.499878 
	C1916.444336,1286.899780 1902.906860,1288.469238 1889.370361,1290.038086 
	C1885.085449,1290.534790 1880.662354,1290.732788 1876.590210,1291.995605 
	C1866.399170,1295.155273 1856.368774,1298.526367 1845.443726,1298.316406 
	C1838.711426,1298.187012 1836.666382,1304.726562 1832.454834,1309.190918 
	C1818.401245,1310.792480 1805.012695,1312.767700 1793.496216,1321.167725 
	C1789.358521,1324.185791 1785.135620,1325.494019 1780.745117,1320.166382 
	C1790.652588,1314.605469 1800.684570,1308.457642 1811.539062,1304.660156 
	C1857.577148,1288.553223 1904.769653,1277.334839 1953.557617,1273.627563 
	C1974.469727,1272.038330 1995.361328,1270.004395 2016.302002,1269.010742 
	C2043.335205,1267.727661 2070.197754,1270.658081 2096.960693,1274.179321 
	C2142.957031,1280.230835 2188.204834,1289.714966 2231.778809,1305.915894 
	C2303.332520,1332.519531 2369.168701,1369.419312 2426.035156,1420.513306 
	C2467.693604,1457.942993 2505.707520,1499.179565 2539.831543,1543.745239 
	C2563.901611,1575.180908 2580.581055,1610.794434 2596.927246,1646.599976 
	C2618.012207,1692.785767 2635.838623,1739.993164 2645.028564,1790.153687 
	C2650.673828,1820.968384 2654.715576,1851.926636 2656.504395,1883.242920 
	C2658.389648,1916.247681 2658.644775,1949.238281 2655.559082,1982.091553 
	C2653.197998,2007.229614 2649.247803,2032.259033 2645.008301,2057.167480 
	C2641.607178,2077.149658 2636.709961,2096.877197 2632.123047,2117.413086 
z"/>
<path fill="#DC4529" opacity="1.000000" stroke="none" 
	d="
M1507.806396,1435.934082 
	C1514.238770,1430.205688 1520.385864,1424.113037 1527.155151,1418.815430 
	C1549.985474,1400.949219 1573.683350,1384.334839 1598.956543,1370.027222 
	C1609.672241,1363.960938 1619.940063,1357.087646 1630.766602,1351.238770 
	C1638.804321,1346.896606 1647.414551,1343.614624 1655.769775,1339.860352 
	C1656.172119,1340.557861 1656.574585,1341.255249 1656.977051,1341.952637 
	C1654.824707,1343.769653 1652.772583,1345.723877 1650.503784,1347.381470 
	C1635.450562,1358.379272 1620.339233,1369.297241 1605.270020,1380.273071 
	C1590.712524,1390.875854 1576.817505,1402.200562 1564.719360,1415.673218 
	C1560.765259,1420.076660 1555.707153,1423.488770 1549.777710,1427.688110 
	C1537.458618,1430.643188 1526.538452,1433.366699 1515.555420,1435.807373 
	C1513.085205,1436.356323 1510.395264,1435.917969 1507.806396,1435.934082 
z"/>
<path fill="#DC4529" opacity="1.000000" stroke="none" 
	d="
M1490.876221,1499.006592 
	C1486.142456,1499.419922 1481.591187,1499.670898 1477.068359,1500.175659 
	C1465.680054,1501.447021 1454.304688,1502.832886 1441.985596,1504.078125 
	C1453.467651,1489.638062 1465.832886,1475.243896 1478.374512,1461.005249 
	C1480.068970,1459.081421 1482.650024,1457.938721 1486.278931,1456.456177 
	C1499.090210,1457.664673 1510.443237,1458.851318 1521.796265,1460.037842 
	C1519.735962,1462.973267 1517.828735,1466.031738 1515.587158,1468.821655 
	C1508.325928,1477.859863 1500.942139,1486.799683 1492.771729,1496.455200 
	C1491.496460,1497.530762 1491.280029,1498.026855 1491.288574,1498.621216 
	C1491.288574,1498.621216 1491.071777,1498.959839 1490.876221,1499.006592 
z"/>
<path fill="#A3210C" opacity="1.000000" stroke="none" 
	d="
M1522.437744,1459.801758 
	C1510.443237,1458.851318 1499.090210,1457.664673 1486.939209,1456.263428 
	C1490.652710,1447.122070 1498.696045,1441.862305 1507.174683,1436.166260 
	C1510.395264,1435.917969 1513.085205,1436.356323 1515.555420,1435.807373 
	C1526.538452,1433.366699 1537.458618,1430.643188 1549.175415,1427.990234 
	C1541.379028,1438.822510 1534.708984,1451.302246 1522.437744,1459.801758 
z"/>
<path fill="#DC4529" opacity="1.000000" stroke="none" 
	d="
M1585.051636,1453.039917 
	C1584.707397,1453.736938 1583.704468,1454.631714 1582.035400,1455.710205 
	C1582.377197,1455.008423 1583.385132,1454.123047 1585.051636,1453.039917 
z"/>
<path fill="#A3210C" opacity="1.000000" stroke="none" 
	d="
M1491.617676,1498.390625 
	C1491.280029,1498.026855 1491.496460,1497.530762 1492.307251,1496.941895 
	C1492.585571,1497.299438 1492.342285,1497.769287 1491.617676,1498.390625 
z"/>
<path fill="#E14B2C" opacity="1.000000" stroke="none" 
	d="
M1821.659668,1410.252197 
	C1839.328247,1403.539917 1856.447632,1397.035889 1873.833252,1391.345093 
	C1933.012085,1371.973389 1993.708130,1362.659180 2055.986328,1366.383911 
	C2111.285645,1369.691162 2164.668457,1382.189331 2216.219482,1402.537720 
	C2282.677002,1428.769897 2342.321533,1466.293457 2395.559570,1513.543457 
	C2430.608887,1544.650513 2459.132324,1581.732300 2484.450684,1621.165283 
	C2529.173584,1690.820312 2555.571289,1767.038208 2565.406250,1849.056030 
	C2569.736572,1885.166992 2571.840332,1921.515137 2569.325195,1957.795044 
	C2565.929688,2006.773193 2557.887939,2055.054688 2542.359619,2101.854248 
	C2540.788818,2106.588867 2539.737305,2111.496338 2538.364746,2117.067383 
	C2524.448730,2154.010010 2507.367920,2188.639893 2487.114746,2221.646729 
	C2470.366943,2248.940918 2451.528564,2274.708740 2430.399902,2298.886230 
	C2395.617676,2338.686768 2355.224854,2371.472900 2309.432129,2397.609863 
	C2281.029785,2413.821045 2251.359131,2427.409180 2220.677490,2438.847900 
	C2181.789551,2453.345215 2141.800537,2463.313477 2100.770752,2469.231934 
	C2069.030273,2473.810303 2037.048950,2475.615723 2005.100830,2473.665771 
	C1939.496582,2469.662109 1877.169067,2452.781982 1817.934326,2424.108887 
	C1773.324219,2402.514648 1731.525513,2376.563721 1693.181396,2345.233154 
	C1668.162720,2324.790527 1644.497070,2302.896240 1623.057251,2278.528564 
	C1575.504761,2224.481689 1540.926270,2163.027344 1517.193237,2095.381592 
	C1504.145142,2058.190674 1494.966309,2019.963867 1491.783081,1980.530396 
	C1490.257812,1961.635864 1488.157837,1942.689941 1488.269897,1923.778931 
	C1488.629150,1863.211792 1496.296997,1803.602295 1513.760254,1745.389648 
	C1524.073853,1711.010132 1539.653564,1678.953979 1556.564819,1647.569458 
	C1581.890747,1600.568237 1614.579590,1558.885132 1653.182251,1522.168091 
	C1694.418335,1482.946167 1740.136963,1449.656372 1791.343628,1424.352051 
	C1798.198364,1420.964722 1805.493286,1418.477417 1812.513306,1415.410645 
	C1815.513672,1414.099854 1818.331665,1412.371704 1821.659668,1410.252197 
M1826.056152,1501.426025 
	C1825.805786,1502.167725 1825.555542,1502.909546 1823.870605,1503.817749 
	C1820.223267,1505.371094 1816.280151,1506.459351 1812.979858,1508.558472 
	C1798.925903,1517.497437 1784.997070,1526.637817 1771.141479,1535.882935 
	C1733.057251,1561.294800 1701.132202,1593.245728 1673.218750,1629.280029 
	C1649.255493,1660.214722 1629.247192,1693.534424 1613.133545,1729.297241 
	C1590.697021,1779.093384 1577.477661,1831.122681 1574.306885,1885.546509 
	C1572.522095,1916.180786 1574.310913,1946.836670 1578.577148,1977.246704 
	C1587.182251,2038.587646 1605.471558,2096.760986 1636.352173,2150.707275 
	C1663.108643,2197.448975 1697.141846,2238.140869 1738.383179,2272.748047 
	C1772.774658,2301.607178 1810.428955,2325.393066 1851.023438,2344.587891 
	C1880.971191,2358.748047 1912.042725,2369.722412 1944.224731,2377.387939 
	C1991.157837,2388.567139 2038.831421,2388.917236 2086.311035,2383.309326 
	C2144.792236,2376.402344 2199.924316,2358.239014 2251.618164,2329.484375 
	C2301.192627,2301.908203 2343.967529,2266.326172 2379.970947,2222.758789 
	C2409.856689,2186.594482 2434.690674,2147.223389 2451.402588,2102.184570 
	C2452.118164,2101.925781 2452.833740,2101.667236 2455.157715,2101.842529 
	C2471.205078,2105.886475 2486.806885,2111.997070 2503.849365,2112.854492 
	C2504.893555,2110.742188 2505.958252,2109.067627 2506.589111,2107.243408 
	C2523.436523,2058.522705 2534.781006,2008.503052 2537.579590,1957.046509 
	C2539.858154,1915.149170 2538.781494,1873.137085 2531.289307,1831.603149 
	C2521.476074,1777.205566 2506.382812,1724.514526 2479.034912,1676.056152 
	C2451.489746,1627.247681 2422.046875,1579.923828 2379.522461,1542.005249 
	C2357.576416,1522.436523 2334.891357,1503.967896 2310.423096,1487.840942 
	C2267.929688,1459.833740 2222.292969,1438.204346 2173.707520,1422.817627 
	C2135.739990,1410.793457 2096.902832,1402.820068 2057.241455,1400.509766 
	C2033.738647,1399.140869 2010.009277,1400.737671 1986.425781,1401.896851 
	C1947.929443,1403.789062 1910.586670,1412.373901 1873.983154,1423.929199 
	C1859.454468,1428.515747 1845.621826,1435.285889 1831.410522,1440.906006 
	C1823.102539,1444.191528 1821.186523,1450.508057 1822.081787,1458.617798 
	C1823.614014,1472.498169 1824.947021,1486.400635 1826.056152,1501.426025 
z"/>
<path fill="#F16A41" opacity="1.000000" stroke="none" 
	d="
M2450.338135,2102.599609 
	C2434.690674,2147.223389 2409.856689,2186.594482 2379.970947,2222.758789 
	C2343.967529,2266.326172 2301.192627,2301.908203 2251.618164,2329.484375 
	C2199.924316,2358.239014 2144.792236,2376.402344 2086.311035,2383.309326 
	C2038.831421,2388.917236 1991.157837,2388.567139 1944.224731,2377.387939 
	C1912.042725,2369.722412 1880.971191,2358.748047 1851.023438,2344.587891 
	C1810.428955,2325.393066 1772.774658,2301.607178 1738.383179,2272.748047 
	C1697.141846,2238.140869 1663.108643,2197.448975 1636.352173,2150.707275 
	C1605.471558,2096.760986 1587.182251,2038.587646 1578.577148,1977.246704 
	C1574.310913,1946.836670 1572.522095,1916.180786 1574.306885,1885.546509 
	C1577.477661,1831.122681 1590.697021,1779.093384 1613.133545,1729.297241 
	C1629.247192,1693.534424 1649.255493,1660.214722 1673.218750,1629.280029 
	C1701.132202,1593.245728 1733.057251,1561.294800 1771.141479,1535.882935 
	C1784.997070,1526.637817 1798.925903,1517.497437 1812.979858,1508.558472 
	C1816.280151,1506.459351 1820.223267,1505.371094 1824.727783,1504.658691 
	C1825.899292,1510.151611 1825.839111,1514.864624 1826.586182,1519.445923 
	C1833.566772,1562.253296 1843.017334,1604.383789 1857.899414,1645.306763 
	C1886.159912,1723.017578 1932.748901,1787.513916 1995.911865,1840.399048 
	C2018.630981,1859.421387 2041.385498,1878.401855 2064.186279,1897.326294 
	C2101.143555,1928.000366 2139.562012,1956.650635 2180.564941,1981.774048 
	C2236.898193,2016.290771 2294.611816,2048.012207 2356.253662,2072.295654 
	C2387.013428,2084.413330 2418.316406,2094.547852 2450.338135,2102.599609 
M1814.715088,1967.999268 
	C1817.306885,1967.413208 1819.922852,1966.916626 1822.487061,1966.227783 
	C1861.784058,1955.668579 1887.813232,1919.050537 1883.597412,1880.294312 
	C1879.333862,1841.097534 1843.755981,1807.919678 1804.359741,1805.751099 
	C1749.693970,1802.741943 1702.602051,1860.507568 1726.614014,1919.387573 
	C1740.606323,1953.698608 1774.706665,1972.172241 1814.715088,1967.999268 
M2028.312256,2113.079102 
	C2006.090698,2103.131104 1990.583496,2087.356934 1984.623779,2063.132812 
	C1983.758789,2059.617676 1982.353271,2056.136963 1980.623657,2052.952148 
	C1976.432617,2045.234253 1969.616455,2042.173218 1961.393677,2043.860352 
	C1954.440552,2045.286865 1950.829346,2050.127197 1949.930908,2059.396729 
	C1948.762939,2071.448975 1951.694824,2082.714844 1957.889160,2092.858643 
	C1975.359131,2121.466309 1999.562012,2142.350830 2031.918823,2151.894287 
	C2065.665771,2161.847656 2098.032959,2155.731201 2128.177734,2138.557861 
	C2156.866455,2122.213867 2177.049805,2098.628418 2184.790527,2065.862061 
	C2186.207520,2059.864990 2186.278320,2053.238281 2185.463135,2047.102783 
	C2184.379883,2038.948853 2178.747803,2034.285278 2171.581787,2033.686035 
	C2163.158447,2032.981689 2157.377930,2036.081421 2154.149658,2044.026855 
	C2152.163330,2048.916016 2151.050781,2054.195312 2149.881104,2059.375000 
	C2143.805664,2086.274170 2127.433594,2104.341309 2102.010498,2114.000488 
	C2078.032959,2123.110107 2053.790771,2122.605957 2028.312256,2113.079102 
z"/>
<path fill="#F88B58" opacity="1.000000" stroke="none" 
	d="
M2450.870361,2102.392090 
	C2418.316406,2094.547852 2387.013428,2084.413330 2356.253662,2072.295654 
	C2294.611816,2048.012207 2236.898193,2016.290771 2180.564941,1981.774048 
	C2139.562012,1956.650635 2101.143555,1928.000366 2064.186279,1897.326294 
	C2041.385498,1878.401855 2018.630981,1859.421387 1995.911865,1840.399048 
	C1932.748901,1787.513916 1886.159912,1723.017578 1857.899414,1645.306763 
	C1843.017334,1604.383789 1833.566772,1562.253296 1826.586182,1519.445923 
	C1825.839111,1514.864624 1825.899292,1510.151611 1825.445068,1504.575439 
	C1825.555542,1502.909546 1825.805786,1502.167725 1826.919678,1500.718750 
	C1830.895386,1498.849121 1833.996094,1497.655640 1837.121216,1496.529419 
	C1863.748291,1486.934692 1890.044312,1476.249756 1917.087524,1468.020386 
	C1959.123535,1455.228516 2002.386108,1450.563354 2046.408081,1451.723145 
	C2066.138184,1452.242920 2085.562256,1454.380127 2105.002441,1457.246338 
	C2147.791504,1463.554932 2186.963623,1480.577881 2225.435303,1499.007690 
	C2277.869629,1524.126587 2324.760986,1557.311401 2363.737793,1600.811646 
	C2377.485840,1616.155029 2390.916748,1631.955933 2402.858398,1648.712280 
	C2439.034180,1699.473389 2459.152588,1757.249268 2473.960693,1817.124023 
	C2480.132080,1842.076294 2482.393311,1867.542725 2484.658447,1893.148071 
	C2486.706543,1916.303101 2485.042236,1939.119385 2483.318604,1961.915283 
	C2480.700928,1996.537354 2472.522461,2030.286377 2463.220459,2063.719482 
	C2459.744629,2076.212646 2456.758545,2088.841553 2453.549316,2101.408691 
	C2452.833740,2101.667236 2452.118164,2101.925781 2450.870361,2102.392090 
M2353.609863,1843.736328 
	C2350.346191,1831.680176 2344.861816,1820.756958 2337.044189,1810.995483 
	C2308.230713,1775.017578 2261.007324,1769.624512 2225.378662,1798.809814 
	C2197.209473,1821.884766 2188.924805,1851.811768 2197.448242,1886.695923 
	C2204.313232,1914.791626 2222.269287,1932.306274 2249.839355,1940.271484 
	C2264.240967,1944.432251 2278.746826,1944.520386 2293.272949,1941.038696 
	C2337.342041,1930.475952 2362.143311,1891.327148 2353.609863,1843.736328 
z"/>
<path fill="#F16A41" opacity="1.000000" stroke="none" 
	d="
M2454.353516,2101.625488 
	C2456.758545,2088.841553 2459.744629,2076.212646 2463.220459,2063.719482 
	C2472.522461,2030.286377 2480.700928,1996.537354 2483.318604,1961.915283 
	C2485.042236,1939.119385 2486.706543,1916.303101 2484.658447,1893.148071 
	C2482.393311,1867.542725 2480.132080,1842.076294 2473.960693,1817.124023 
	C2459.152588,1757.249268 2439.034180,1699.473389 2402.858398,1648.712280 
	C2390.916748,1631.955933 2377.485840,1616.155029 2363.737793,1600.811646 
	C2324.760986,1557.311401 2277.869629,1524.126587 2225.435303,1499.007690 
	C2186.963623,1480.577881 2147.791504,1463.554932 2105.002441,1457.246338 
	C2085.562256,1454.380127 2066.138184,1452.242920 2046.408081,1451.723145 
	C2002.386108,1450.563354 1959.123535,1455.228516 1917.087524,1468.020386 
	C1890.044312,1476.249756 1863.748291,1486.934692 1837.121216,1496.529419 
	C1833.996094,1497.655640 1830.895386,1498.849121 1827.073486,1500.152588 
	C1824.947021,1486.400635 1823.614014,1472.498169 1822.081787,1458.617798 
	C1821.186523,1450.508057 1823.102539,1444.191528 1831.410522,1440.906006 
	C1845.621826,1435.285889 1859.454468,1428.515747 1873.983154,1423.929199 
	C1910.586670,1412.373901 1947.929443,1403.789062 1986.425781,1401.896851 
	C2010.009277,1400.737671 2033.738647,1399.140869 2057.241455,1400.509766 
	C2096.902832,1402.820068 2135.739990,1410.793457 2173.707520,1422.817627 
	C2222.292969,1438.204346 2267.929688,1459.833740 2310.423096,1487.840942 
	C2334.891357,1503.967896 2357.576416,1522.436523 2379.522461,1542.005249 
	C2422.046875,1579.923828 2451.489746,1627.247681 2479.034912,1676.056152 
	C2506.382812,1724.514526 2521.476074,1777.205566 2531.289307,1831.603149 
	C2538.781494,1873.137085 2539.858154,1915.149170 2537.579590,1957.046509 
	C2534.781006,2008.503052 2523.436523,2058.522705 2506.589111,2107.243408 
	C2505.958252,2109.067627 2504.893555,2110.742188 2503.849365,2112.854492 
	C2486.806885,2111.997070 2471.205078,2105.886475 2454.353516,2101.625488 
z"/>
<path fill="#3B090B" opacity="1.000000" stroke="none" 
	d="
M1813.869629,1968.112061 
	C1774.706665,1972.172241 1740.606323,1953.698608 1726.614014,1919.387573 
	C1702.602051,1860.507568 1749.693970,1802.741943 1804.359741,1805.751099 
	C1843.755981,1807.919678 1879.333862,1841.097534 1883.597412,1880.294312 
	C1887.813232,1919.050537 1861.784058,1955.668579 1822.487061,1966.227783 
	C1819.922852,1966.916626 1817.306885,1967.413208 1813.869629,1968.112061 
M1842.465088,1847.267334 
	C1836.045654,1834.692505 1825.879395,1829.617676 1814.276367,1833.195557 
	C1802.386841,1836.861938 1794.431641,1848.647461 1796.232666,1860.779907 
	C1796.742554,1864.215088 1798.221802,1867.971436 1800.420410,1870.611206 
	C1810.508789,1882.723877 1828.657349,1882.346069 1838.758545,1870.312866 
	C1844.192139,1863.839966 1844.908813,1856.611328 1842.465088,1847.267334 
z"/>
<path fill="#3B090B" opacity="1.000000" stroke="none" 
	d="
M2029.025146,2113.380371 
	C2053.790771,2122.605957 2078.032959,2123.110107 2102.010498,2114.000488 
	C2127.433594,2104.341309 2143.805664,2086.274170 2149.881104,2059.375000 
	C2151.050781,2054.195312 2152.163330,2048.916016 2154.149658,2044.026855 
	C2157.377930,2036.081421 2163.158447,2032.981689 2171.581787,2033.686035 
	C2178.747803,2034.285278 2184.379883,2038.948853 2185.463135,2047.102783 
	C2186.278320,2053.238281 2186.207520,2059.864990 2184.790527,2065.862061 
	C2177.049805,2098.628418 2156.866455,2122.213867 2128.177734,2138.557861 
	C2098.032959,2155.731201 2065.665771,2161.847656 2031.918823,2151.894287 
	C1999.562012,2142.350830 1975.359131,2121.466309 1957.889160,2092.858643 
	C1951.694824,2082.714844 1948.762939,2071.448975 1949.930908,2059.396729 
	C1950.829346,2050.127197 1954.440552,2045.286865 1961.393677,2043.860352 
	C1969.616455,2042.173218 1976.432617,2045.234253 1980.623657,2052.952148 
	C1982.353271,2056.136963 1983.758789,2059.617676 1984.623779,2063.132812 
	C1990.583496,2087.356934 2006.090698,2103.131104 2029.025146,2113.380371 
z"/>
<path fill="#3B090B" opacity="1.000000" stroke="none" 
	d="
M2353.767578,1844.562622 
	C2362.143311,1891.327148 2337.342041,1930.475952 2293.272949,1941.038696 
	C2278.746826,1944.520386 2264.240967,1944.432251 2249.839355,1940.271484 
	C2222.269287,1932.306274 2204.313232,1914.791626 2197.448242,1886.695923 
	C2188.924805,1851.811768 2197.209473,1821.884766 2225.378662,1798.809814 
	C2261.007324,1769.624512 2308.230713,1775.017578 2337.044189,1810.995483 
	C2344.861816,1820.756958 2350.346191,1831.680176 2353.767578,1844.562622 
M2311.839111,1844.666870 
	C2318.277100,1835.536499 2318.812744,1825.897705 2312.911865,1816.583618 
	C2307.055908,1807.340576 2297.451416,1806.870728 2287.894287,1808.358887 
	C2274.774414,1810.401733 2266.512451,1822.024414 2268.142822,1835.298096 
	C2269.644775,1847.522339 2278.648193,1854.488403 2292.186523,1854.087524 
	C2299.593262,1853.868042 2305.732178,1851.028076 2311.839111,1844.666870 
z"/>
<path fill="#000000" opacity="1.000000" stroke="none" 
	d="
M1842.733887,1848.023682 
	C1844.908813,1856.611328 1844.192139,1863.839966 1838.758545,1870.312866 
	C1828.657349,1882.346069 1810.508789,1882.723877 1800.420410,1870.611206 
	C1798.221802,1867.971436 1796.742554,1864.215088 1796.232666,1860.779907 
	C1794.431641,1848.647461 1802.386841,1836.861938 1814.276367,1833.195557 
	C1825.879395,1829.617676 1836.045654,1834.692505 1842.733887,1848.023682 
z"/>
<path fill="#000000" opacity="1.000000" stroke="none" 
	d="
M2311.343262,1845.221680 
	C2305.732178,1851.028076 2299.593262,1853.868042 2292.186523,1854.087524 
	C2278.648193,1854.488403 2269.644775,1847.522339 2268.142822,1835.298096 
	C2266.512451,1822.024414 2274.774414,1810.401733 2287.894287,1808.358887 
	C2297.451416,1806.870728 2307.055908,1807.340576 2312.911865,1816.583618 
	C2318.812744,1825.897705 2318.277100,1835.536499 2311.343262,1845.221680 
z"/>
</svg>